<svg xmlns="http://www.w3.org/2000/svg" viewBox="0 0 20 20" width="20" height="20"><style>tspan { white-space:pre }.shp0 { fill: #ffffff } </style><path class="shp0" d="M11.46 10.01L19.7 1.82C20.09 1.43 20.09 0.8 19.7 0.41C19.3 0.01 18.66 0.01 18.27 0.41L10.04 8.59L1.73 0.28C1.34 -0.11 0.7 -0.11 0.3 0.28C-0.09 0.68 -0.09 1.32 0.3 1.72L8.6 10.02L0.27 18.3C-0.12 18.7 -0.12 19.33 0.27 19.72C0.67 20.11 1.31 20.11 1.7 19.72L10.02 11.44L18.3 19.72C18.69 20.11 19.33 20.11 19.73 19.72C20.12 19.32 20.12 18.68 19.73 18.28L11.46 10.01Z" /></svg>