<svg version="1.1" xmlns="http://www.w3.org/2000/svg" xmlns:xlink="http://www.w3.org/1999/xlink" x="0px" y="0px" viewBox="0 0 37 44" xml:space="preserve">
<g>
	<ellipse fill="#eaeaea" cx="18.5" cy="18.2" rx="13.9" ry="13.7"></ellipse>
	<g>
		<path fill="#fff" stroke="#eaeaea" stroke-width=".8403" stroke-miterlimit="10" d="M18.5,0.5C8.7,0.5,0.7,8.5,0.7,18.2c0,13.4,17.9,25.1,17.9,25.1s17.9-11.7,17.9-25.1
			C36.4,8.5,28.4,0.5,18.5,0.5z M18.5,32c-7.7,0-13.9-6.2-13.9-13.7c0-7.6,6.2-13.7,13.9-13.7s13.9,6.2,13.9,13.7
			C32.4,25.8,26.2,32,18.5,32z"></path>
	</g>
	<g>
		<path fill="#c42032" d="M29.2,16.7l-1-0.5c1.7-0.1,2.2,0.4,2.2,0.4c-0.4-1-2.9-1.1-4.6-1.1c0.8-0.6,1.6-1.3,1.6-1.5
			c0-0.3-0.3-0.4-0.7-0.4c-0.3,0-0.7-0.1-1.1-0.1H25c-0.1,0-0.2,0-0.3,0H7.9c0,0-0.8,0-0.2,0.6c0.8,0.7,2.6,0.7,2.6,0.7h10.1
			l-0.5,0.5h-9.7c0,0-0.8,0-0.2,0.5c0.7,0.6,2.3,0.7,2.3,0.7h6.4l-0.4,0.5h-6c0,0-0.8,0-0.2,0.5c0.7,0.6,2.3,0.7,2.3,0.7h2.7
			l-0.4,0.4h-2.4c0,0-0.7,0-0.2,0.5c0.2,0.2,0.8,0.3,1,0.3l-3.6,6.4c0,0-0.1,0.1,0.1,0.2c0.2,0,0.4-0.1,0.4-0.1l7.5-7l2.7,0.5L24,20
			l-0.5-0.4c0,0,0.4-0.2,0.9-0.1c0.6,0.1,0.9,0.5,0.9,0.5l-0.6,0.2c0,0,1.3,0.2,1.5-0.1c0.1-0.2-1.5-1.2-3.1-1.9
			c8.2-1.4,8,0.1,8,0.1C32.2,16.7,29.2,16.7,29.2,16.7"></path>
	</g>
	<ellipse fill="none" stroke="#fff" stroke-width=".9244" stroke-miterlimit="10" cx="18.5" cy="18.2" rx="13.9" ry="13.7"></ellipse>
</g>
</svg>