<svg xmlns="http://www.w3.org/2000/svg" viewBox="0 0 19 20" width="19" height="20"><style>tspan { white-space:pre }.shp0 { fill: #616568 } </style><path fill-rule="evenodd" class="shp0" d="M4.73 19.07C4.48 19.07 4.23 19.02 4 18.92C3.78 18.83 3.57 18.7 3.39 18.52C3.22 18.35 3.08 18.15 2.98 17.93C2.89 17.7 2.84 17.46 2.84 17.22L2.84 4.21C2.84 4.12 2.86 4.04 2.89 3.95C2.92 3.87 2.98 3.8 3.04 3.74C3.1 3.67 3.18 3.62 3.26 3.59C3.35 3.55 3.44 3.54 3.53 3.54L14.48 3.54C14.57 3.54 14.66 3.55 14.74 3.59C14.83 3.62 14.9 3.67 14.97 3.74C15.03 3.8 15.08 3.87 15.12 3.95C15.15 4.04 15.17 4.12 15.17 4.21L15.17 17.22C15.17 17.46 15.12 17.7 15.02 17.93C14.93 18.15 14.79 18.35 14.61 18.52C14.44 18.7 14.23 18.83 14 18.92C13.77 19.02 13.53 19.07 13.28 19.07L4.73 19.07ZM4.22 4.89L4.22 17.22C4.22 17.29 4.24 17.35 4.26 17.41C4.29 17.47 4.32 17.52 4.37 17.57C4.42 17.61 4.47 17.65 4.53 17.68C4.59 17.7 4.66 17.71 4.73 17.71L13.28 17.71C13.35 17.71 13.41 17.7 13.47 17.68C13.53 17.65 13.59 17.61 13.64 17.57C13.68 17.52 13.72 17.47 13.75 17.41C13.77 17.35 13.78 17.29 13.78 17.22L13.78 4.89L4.22 4.89Z" /><path fill-rule="evenodd" class="shp0" d="M11.91 4.89L6.09 4.89C6 4.89 5.91 4.87 5.83 4.84C5.74 4.8 5.67 4.75 5.6 4.69C5.54 4.63 5.49 4.55 5.45 4.47C5.42 4.39 5.4 4.3 5.4 4.21L5.4 2.98C5.4 2.72 5.45 2.46 5.56 2.21C5.66 1.97 5.81 1.75 6.01 1.56C6.2 1.37 6.43 1.22 6.68 1.12C6.93 1.02 7.2 0.97 7.47 0.97L10.54 0.97C10.81 0.97 11.08 1.02 11.33 1.12C11.58 1.22 11.81 1.37 12 1.56C12.19 1.75 12.34 1.97 12.45 2.21C12.55 2.46 12.61 2.72 12.61 2.98L12.61 4.21C12.61 4.3 12.59 4.39 12.55 4.47C12.52 4.55 12.47 4.63 12.4 4.69C12.34 4.75 12.26 4.8 12.18 4.84C12.09 4.87 12 4.89 11.91 4.89ZM6.79 3.54L11.22 3.54L11.22 2.98C11.22 2.9 11.2 2.81 11.17 2.73C11.13 2.65 11.08 2.58 11.02 2.51C10.96 2.45 10.88 2.4 10.8 2.37C10.72 2.34 10.63 2.32 10.54 2.32L7.47 2.32C7.38 2.32 7.29 2.34 7.21 2.37C7.12 2.4 7.05 2.45 6.99 2.51C6.92 2.58 6.87 2.65 6.84 2.73C6.8 2.81 6.79 2.9 6.79 2.98L6.79 3.54Z" /><path class="shp0" d="M9 16.48C8.91 16.48 8.82 16.46 8.74 16.43C8.65 16.39 8.58 16.34 8.51 16.28C8.45 16.22 8.4 16.14 8.36 16.06C8.33 15.98 8.31 15.89 8.31 15.8L8.31 6.8C8.31 6.62 8.38 6.45 8.51 6.33C8.64 6.2 8.82 6.13 9 6.13C9.19 6.13 9.36 6.2 9.49 6.33C9.62 6.45 9.7 6.62 9.7 6.8L9.7 15.8C9.7 15.89 9.68 15.98 9.64 16.06C9.61 16.14 9.56 16.22 9.49 16.28C9.43 16.34 9.35 16.39 9.27 16.43C9.18 16.46 9.09 16.48 9 16.48Z" /><path class="shp0" d="M6.5 16.48C6.41 16.48 6.32 16.46 6.24 16.43C6.15 16.39 6.08 16.34 6.01 16.28C5.95 16.22 5.9 16.14 5.86 16.06C5.83 15.98 5.81 15.89 5.81 15.8L5.81 6.8C5.81 6.62 5.88 6.45 6.01 6.33C6.14 6.2 6.32 6.13 6.5 6.13C6.69 6.13 6.86 6.2 6.99 6.33C7.12 6.45 7.19 6.62 7.19 6.8L7.19 15.8C7.19 15.89 7.18 15.98 7.14 16.06C7.11 16.14 7.06 16.22 6.99 16.28C6.93 16.34 6.85 16.39 6.77 16.43C6.68 16.46 6.59 16.48 6.5 16.48Z" /><path class="shp0" d="M11.51 16.48C11.41 16.48 11.32 16.46 11.24 16.43C11.16 16.39 11.08 16.34 11.02 16.28C10.95 16.22 10.9 16.14 10.87 16.06C10.83 15.98 10.81 15.89 10.81 15.8L10.81 6.8C10.81 6.62 10.89 6.45 11.02 6.33C11.15 6.2 11.32 6.13 11.51 6.13C11.69 6.13 11.87 6.2 12 6.33C12.13 6.45 12.2 6.62 12.2 6.8L12.2 15.8C12.2 15.89 12.18 15.98 12.15 16.06C12.11 16.14 12.06 16.22 12 16.28C11.93 16.34 11.85 16.39 11.77 16.43C11.69 16.46 11.6 16.48 11.51 16.48Z" /><path class="shp0" d="M15.55 4.89L2.46 4.89C2.27 4.89 2.1 4.82 1.97 4.69C1.84 4.57 1.76 4.39 1.76 4.21C1.76 4.03 1.84 3.86 1.97 3.74C2.1 3.61 2.27 3.54 2.46 3.54L15.55 3.54C15.73 3.54 15.91 3.61 16.04 3.74C16.17 3.86 16.24 4.03 16.24 4.21C16.24 4.39 16.17 4.57 16.04 4.69C15.91 4.82 15.73 4.89 15.55 4.89Z" /></svg>