<svg xmlns="http://www.w3.org/2000/svg" viewBox="0 0 30 35" width="30" height="35"><style>tspan { white-space:pre }.shp0 { fill: #ffffff } </style><path fill-rule="evenodd" class="shp0" d="M29.99 24.12L29.99 29.63C29.99 30.94 28.93 32 27.62 32C12.39 32 0 19.61 0 4.38C0 3.07 1.06 2.01 2.37 2.01L7.89 2.01C9.2 2.01 10.26 3.07 10.26 4.38C10.26 6.23 10.55 8.04 11.12 9.77C11.39 10.63 11.16 11.55 10.53 12.18L8.03 15.51C10.09 19.38 12.59 21.88 16.49 23.97L19.9 21.4C20.45 20.83 21.4 20.61 22.24 20.9C23.96 21.47 25.77 21.76 27.62 21.76C28.93 21.76 29.99 22.82 29.99 24.12ZM28.41 24.12C28.41 23.69 28.05 23.34 27.62 23.34C25.6 23.34 23.62 23.02 21.74 22.4C21.46 22.3 21.14 22.38 20.93 22.58L17.05 25.53C16.81 25.71 16.48 25.74 16.21 25.6C11.58 23.23 8.74 20.39 6.4 15.79C6.26 15.52 6.29 15.2 6.47 14.95L9.34 11.15C9.63 10.85 9.71 10.55 9.62 10.25C9 8.37 8.68 6.4 8.68 4.38C8.68 3.94 8.33 3.59 7.89 3.59L2.37 3.59C1.93 3.59 1.58 3.94 1.58 4.38C1.58 18.74 13.26 30.42 27.62 30.42C28.05 30.42 28.41 30.07 28.41 29.63L28.41 24.12Z" /></svg>