<svg xmlns="http://www.w3.org/2000/svg" viewBox="0 0 24 25" width="24" height="25"><style>tspan { white-space:pre }.shp0 { fill: #ffffff } </style><path fill-rule="evenodd" class="shp0" d="M20.5 10L23.5 10L23.5 12L20.5 12L20.5 15L18.5 15L18.5 12L15.5 12L15.5 10L18.5 10L18.5 7L20.5 7L20.5 10ZM12.8 13.4C14.2 14.6 15.3 15.7 15.3 17.8C15.3 20.7 12.7 23.7 7.3 23.7C2.8 23.7 0.7 21.5 0.7 19.2C0.7 18.1 1.2 16.6 3 15.5C4.9 14.3 7.5 14 8.9 13.9C8.4 13.3 8 12.9 8 11.9C8 11.4 8.3 10.9 8.4 10.6L7.6 10.6C4.4 10.6 2.6 8.1 2.6 5.8C2.6 2.8 4.8 0 9.2 0L15.4 0L14.2 1.4L12.5 1.4C13.2 2 14.5 3.2 14.5 5.3C14.5 7.5 13.2 8.6 11.9 9.6C11.4 9.9 10.9 10.5 10.9 11.2C10.9 11.9 11.3 12.3 11.7 12.6L12.8 13.4ZM5.2 4.3C5.2 6.6 6.5 9.7 9 9.7C9.8 9.7 11.9 9.2 11.9 6.6C11.9 4.6 10.5 1.1 7.9 1.1C6.5 1.1 5.2 2.1 5.2 4.3ZM8.8 22.3C11.5 22.3 13.4 20.8 13.4 18.9C13.4 17.3 12.4 16.6 10 14.9L9.3 14.9C9 14.9 7.3 15 6 15.4C5.4 15.7 3.4 16.4 3.4 18.6C3.4 20.8 5.5 22.3 8.8 22.3Z" /></svg>