<svg xmlns="http://www.w3.org/2000/svg" viewBox="0 0 27 25" width="27" height="25"><style>tspan { white-space:pre }.shp0 { fill: #ffffff } </style><path class="shp0" d="M27 3.61C26 4.05 24.94 4.35 23.82 4.48C24.96 3.8 25.84 2.71 26.26 1.41C25.19 2.05 24 2.51 22.74 2.76C21.73 1.68 20.28 1 18.69 1C15.63 1 13.16 3.49 13.16 6.55C13.16 6.99 13.2 7.41 13.3 7.82C8.69 7.59 4.61 5.38 1.88 2.01C1.41 2.83 1.13 3.79 1.13 4.8C1.13 6.73 2.11 8.43 3.6 9.43C2.69 9.4 1.83 9.15 1.09 8.73C1.09 8.76 1.09 8.78 1.09 8.8C1.09 11.5 3 13.74 5.53 14.25C5.07 14.37 4.58 14.44 4.07 14.44C3.72 14.44 3.37 14.41 3.03 14.34C3.74 16.54 5.78 18.15 8.21 18.19C6.32 19.68 3.92 20.57 1.33 20.57C0.88 20.57 0.44 20.54 0.01 20.49C2.45 22.08 5.37 23 8.49 23C18.68 23 24.25 14.54 24.25 7.2C24.25 6.96 24.25 6.72 24.24 6.48C25.32 5.7 26.26 4.72 27 3.61Z" /></svg>