<svg xmlns="http://www.w3.org/2000/svg" viewBox="0 0 19 25" width="19" height="25"><style>tspan { white-space:pre }.shp0 { fill: #000000 } </style><g ><path class="shp0" d="M15.36 13.15C15.33 10.46 17.61 9.17 17.71 9.11C16.43 7.28 14.44 7.03 13.73 7C12.04 6.83 10.42 7.98 9.56 7.98C8.71 7.98 7.38 7.03 5.98 7.05C4.13 7.08 2.42 8.1 1.47 9.72C-0.45 12.97 0.98 17.78 2.85 20.42C3.77 21.71 4.86 23.16 6.29 23.11C7.67 23.05 8.19 22.24 9.85 22.24C11.52 22.24 11.99 23.11 13.44 23.08C14.93 23.05 15.87 21.76 16.77 20.47C17.82 18.97 18.26 17.52 18.28 17.45C18.25 17.43 15.39 16.37 15.36 13.15Z" /><path class="shp0" d="M12.62 5.26C13.38 4.36 13.89 3.11 13.75 1.87C12.66 1.91 11.33 2.58 10.55 3.47C9.84 4.27 9.23 5.54 9.39 6.76C10.61 6.85 11.86 6.15 12.62 5.26Z" /></g></svg>